# xmcd
#
# Track frame offsets:
#	150
#	12655
#	27109
#	42855
#	57347
#	70708
#	89748
#	105965
#	119343
#	133043
#	146865
#	158674
#	168093
#	192084
#	209939
#	219670
#	233087
#	248599
#
# Disc length: 3499 seconds
#
# Revision: 1
# Processed by: cddbd v1.5.2PL0 Copyright (c) Steve Scherf et al.
# Submitted via: audiograbber 1.83.01
#
DISCID=010da912
DTITLE=Dieter Kropp and The Fabulous Barbecue Boys - 2003 - Seven Nights
DYEAR=2003
DGENRE=Blues
TTITLE0=Barbecue Boogie
TTITLE1=Lotsa Poppa
TTITLE2=Real Fine Love
TTITLE3=I'm A Samplin' Man
TTITLE4=Go On Fool
TTITLE5=Tired Of Beeing Alone
TTITLE6=I Got Love If You Want It
TTITLE7=My Little Girl
TTITLE8=Kropp's Hop
TTITLE9=Where Were You, Baby?
TTITLE10=Sittin' and Cryin'
TTITLE11=I Just Keep Loving Her
TTITLE12=Laughing To Keep From Cryin'
TTITLE13=Daybreak
TTITLE14=Don't Be Cruel
TTITLE15=Nosey Neighbors
TTITLE16=Ain't That Lovin' You, Baby?
TTITLE17=Seven Nights To Rock
EXTD=
EXTT0=
EXTT1=
EXTT2=
EXTT3=
EXTT4=
EXTT5=
EXTT6=
EXTT7=
EXTT8=
EXTT9=
EXTT10=
EXTT11=
EXTT12=
EXTT13=
EXTT14=
EXTT15=
EXTT16=
EXTT17=
PLAYORDER=
